<?xml version="1.0" encoding="utf-8"?>
<!-- Generator: Adobe Illustrator 19.0.0, SVG Export Plug-In . SVG Version: 6.00 Build 0)  -->
<svg version="1.1" id="Layer_1" xmlns="http://www.w3.org/2000/svg" xmlns:xlink="http://www.w3.org/1999/xlink" x="0px" y="0px"
	 viewBox="0 0 241.32 176.76" style="enable-background:new 0 0 241.32 176.76;" xml:space="preserve">
<style type="text/css">
	.st0{fill:none;stroke:#F26B6C;stroke-width:13;stroke-miterlimit:10;}
	.st1{fill:#FFFFFF;}
	.st2{fill:#F26B6C;}
</style>
<g id="XMLID_112_">
	<circle id="XMLID_102_" class="st0" cx="120.41" cy="102.97" r="48.58"/>
	<g id="XMLID_92_">
		<line id="XMLID_95_" class="st1" x1="199.32" y1="112.96" x2="241.32" y2="112.96"/>
		<path id="XMLID_94_" class="st2" d="M199.32,112.96c0,0,0.16-0.15,0.47-0.37c0.31-0.21,0.76-0.57,1.33-0.93
			c1.15-0.74,2.79-1.64,4.76-2.45c1.97-0.81,4.27-1.53,6.73-2.01c2.46-0.49,5.09-0.73,7.71-0.74c2.62,0,5.25,0.24,7.71,0.72
			c1.23,0.24,2.42,0.54,3.55,0.88c1.13,0.33,2.19,0.74,3.18,1.13c1.97,0.81,3.61,1.72,4.76,2.46c0.57,0.36,1.03,0.72,1.33,0.93
			c0.31,0.23,0.47,0.37,0.47,0.37s-0.16,0.15-0.47,0.37c-0.31,0.21-0.76,0.58-1.33,0.93c-1.15,0.74-2.79,1.65-4.76,2.46
			c-0.98,0.39-2.05,0.8-3.18,1.13c-1.13,0.34-2.32,0.64-3.55,0.88c-2.46,0.49-5.09,0.72-7.71,0.72c-2.62-0.01-5.25-0.25-7.71-0.74
			c-2.46-0.48-4.76-1.2-6.73-2.01c-1.97-0.81-3.61-1.71-4.76-2.45c-0.57-0.35-1.03-0.72-1.33-0.93
			C199.48,113.1,199.32,112.96,199.32,112.96z"/>
	</g>
	<g id="XMLID_88_">
		<line id="XMLID_91_" class="st1" x1="188.04" y1="149.89" x2="220.32" y2="176.76"/>
		<path id="XMLID_90_" class="st2" d="M188.04,149.89c0,0,0.22-0.01,0.6,0.02c0.37,0.04,0.95,0.04,1.62,0.14
			c1.35,0.17,3.2,0.52,5.22,1.16c2.03,0.64,4.26,1.55,6.45,2.76c2.21,1.2,4.37,2.69,6.4,4.36c2.02,1.68,3.88,3.54,5.46,5.49
			c0.79,0.97,1.52,1.96,2.17,2.94c0.65,0.98,1.21,1.97,1.72,2.9c1,1.88,1.67,3.63,2.08,4.94c0.21,0.64,0.33,1.21,0.43,1.57
			c0.09,0.37,0.12,0.59,0.12,0.59s-0.22,0.01-0.6-0.01c-0.37-0.03-0.95-0.04-1.62-0.14c-1.36-0.16-3.2-0.51-5.23-1.15
			c-1.01-0.33-2.09-0.7-3.17-1.16c-1.08-0.46-2.19-0.99-3.29-1.6c-2.2-1.2-4.37-2.7-6.39-4.38c-2.01-1.69-3.88-3.55-5.45-5.5
			c-1.59-1.94-2.89-3.97-3.88-5.85c-1-1.88-1.68-3.63-2.09-4.93c-0.22-0.64-0.33-1.21-0.43-1.57
			C188.07,150.1,188.04,149.89,188.04,149.89z"/>
	</g>
	<g id="XMLID_85_">
		<path id="XMLID_87_" class="st2" d="M116.36,57.26c0,0-7.73-7.86-19.33-19.64c-5.83-5.87-12.62-12.71-19.9-20.04
			c-0.46-0.46-0.91-0.92-1.37-1.38l-0.04-0.04c-0.26-0.24,0.3,0.27,0.23,0.21l-0.09-0.08l-0.18-0.16l-0.37-0.32l-0.37-0.32
			c-0.12-0.1-0.27-0.25-0.29-0.23c-0.1-0.04-0.19-0.09-0.28-0.15l-0.13-0.1l-0.24-0.11c-0.16-0.08-0.32-0.16-0.48-0.25L73,14.45
			c-1.35-0.5-2.94-0.44-4.4,0.01c-1.44,0.51-2.72,1.43-3.55,2.72c-0.18,0.34-0.42,0.64-0.55,1.03c-0.08,0.2-0.15,0.32-0.26,0.58
			l-0.34,0.97l-1.38,3.9c-1.83,5.2-3.67,10.39-5.47,15.51c-1.81,5.11-3.41,10.21-4.95,15.14c-0.75,2.47-1.49,4.91-2.21,7.29
			c-0.18,0.6-0.36,1.19-0.54,1.78l-0.27,0.88l-0.13,0.44l-0.07,0.22l-0.19,0.51l-0.31,0.85l-0.08,0.21l-0.16,0.35l-0.34,0.7
			c-0.47,0.99-0.95,1.66-1.44,2.4c-4.09,5.83-11.31,8.42-17.38,7.34c-1.53-0.22-2.96-0.69-4.31-1.25c-0.39-0.15-0.51-0.23-0.76-0.34
			l-0.66-0.31c-0.44-0.21-0.87-0.42-1.29-0.62c-1.7-0.81-3.3-1.62-4.8-2.38c-3.02-1.47-5.46-3.21-7.38-4.87
			c-1.9-1.68-3.28-3.29-4.17-4.52c-0.45-0.6-0.76-1.12-0.98-1.48c-0.22-0.34-0.32-0.55-0.32-0.55s0.22-0.07,0.62-0.16
			c0.4-0.09,1-0.23,1.74-0.33c1.5-0.22,3.61-0.35,6.14-0.15c2.52,0.22,5.48,0.76,8.64,1.9c1.59,0.56,3.28,1.13,5.05,1.79
			c0.86,0.31,1.73,0.64,2.63,0.97c0.5,0.15,1.01,0.28,1.54,0.31c2.07,0.25,4.48-0.62,6.07-2.47c0.17-0.24,0.41-0.53,0.45-0.63
			c0.03-0.03,0.05-0.07,0.08-0.1l0.05-0.05l0.09-0.2L37.8,61l0.05-0.1l0.02-0.05c0.11-0.28-0.12,0.32-0.09,0.24l0.08-0.21l0.16-0.43
			l0.33-0.86c0.22-0.57,0.44-1.15,0.67-1.73c0.89-2.32,1.81-4.69,2.73-7.11c1.82-4.84,3.69-9.84,5.4-14.99
			c1.72-5.15,3.46-10.37,5.21-15.6l1.31-3.92L54,15.26c0.14-0.39,0.35-0.89,0.53-1.33c0.34-0.92,0.85-1.77,1.35-2.62
			c2.09-3.37,5.41-5.93,9.06-7.25c3.67-1.28,7.73-1.45,11.44-0.24c0.46,0.15,0.92,0.29,1.37,0.47l1.31,0.61l0.65,0.32
			c0.23,0.13,0.47,0.29,0.7,0.43c0.47,0.3,0.92,0.61,1.37,0.93c0.27,0.18,0.35,0.27,0.48,0.37l0.38,0.32l0.38,0.31l0.19,0.16
			l0.09,0.08l0.36,0.33c0.47,0.45,0.94,0.9,1.41,1.35c7.47,7.14,14.43,13.81,20.41,19.53c12,11.38,20,18.96,20,18.96L116.36,57.26z"
			/>
	</g>
	<g id="XMLID_77_">
		<path id="XMLID_84_" class="st2" d="M116.36,48c0,0,8-7.58,20-18.96c5.97-5.72,12.94-12.38,20.41-19.53
			c0.47-0.45,0.94-0.89,1.41-1.35l0.36-0.33l0.09-0.08l0.19-0.16l0.38-0.31l0.38-0.32c0.13-0.11,0.21-0.19,0.48-0.37
			c0.45-0.32,0.91-0.63,1.37-0.93c0.23-0.15,0.47-0.3,0.7-0.43l0.65-0.32l1.31-0.61c0.45-0.18,0.91-0.32,1.37-0.47
			c3.7-1.2,7.77-1.04,11.44,0.24c3.65,1.32,6.97,3.88,9.06,7.25c0.5,0.85,1.01,1.7,1.35,2.62c0.18,0.44,0.39,0.94,0.53,1.33
			l0.33,0.98l1.31,3.92c1.75,5.23,3.49,10.45,5.21,15.6c1.71,5.15,3.58,10.15,5.4,14.99c0.93,2.41,1.84,4.79,2.73,7.11
			c0.22,0.58,0.45,1.16,0.67,1.73l0.33,0.86l0.16,0.43l0.08,0.21c0.03,0.08-0.19-0.52-0.09-0.24l0.02,0.05l0.05,0.1l0.37,0.83
			l0.09,0.2l0.05,0.05c0.03,0.03,0.06,0.07,0.08,0.1c0.05,0.1,0.29,0.39,0.45,0.63c1.59,1.85,3.99,2.72,6.07,2.47
			c0.53-0.03,1.04-0.16,1.54-0.31c0.9-0.33,1.78-0.65,2.63-0.97c1.77-0.66,3.46-1.24,5.05-1.79c3.16-1.15,6.11-1.68,8.64-1.9
			c2.54-0.19,4.65-0.07,6.14,0.15c0.74,0.1,1.34,0.23,1.74,0.33c0.4,0.08,0.62,0.16,0.62,0.16s-0.1,0.21-0.32,0.55
			c-0.21,0.35-0.53,0.88-0.98,1.48c-0.88,1.23-2.26,2.83-4.17,4.52c-1.92,1.66-4.36,3.4-7.38,4.87c-1.5,0.75-3.1,1.57-4.8,2.38
			c-0.42,0.2-0.85,0.41-1.29,0.62l-0.66,0.31c-0.25,0.11-0.37,0.19-0.76,0.34c-1.34,0.55-2.78,1.03-4.31,1.25
			c-6.07,1.08-13.29-1.51-17.38-7.34c-0.49-0.74-0.96-1.41-1.44-2.4l-0.34-0.7l-0.16-0.35l-0.08-0.21l-0.31-0.85l-0.19-0.51
			l-0.07-0.22l-0.13-0.44l-0.27-0.88c-0.18-0.59-0.36-1.18-0.54-1.78c-0.72-2.38-1.46-4.81-2.21-7.29
			c-1.54-4.93-3.14-10.03-4.95-15.14c-1.81-5.12-3.64-10.31-5.47-15.51l-1.38-3.9l-0.34-0.97c-0.1-0.26-0.18-0.38-0.26-0.58
			c-0.12-0.39-0.36-0.69-0.55-1.03c-0.83-1.28-2.11-2.21-3.55-2.72c-1.46-0.45-3.04-0.51-4.4-0.01l-0.51,0.17
			c-0.16,0.09-0.32,0.17-0.48,0.25L167.59,15l-0.13,0.1c-0.09,0.06-0.18,0.11-0.28,0.15c-0.02-0.02-0.17,0.13-0.29,0.23l-0.37,0.32
			l-0.37,0.32l-0.18,0.16l-0.09,0.08c-0.07,0.07,0.49-0.44,0.23-0.21l-0.04,0.04c-0.46,0.46-0.92,0.92-1.37,1.38
			c-7.28,7.33-14.08,14.17-19.9,20.04c-11.6,11.79-19.33,19.64-19.33,19.64L116.36,48z"/>
	</g>
	<g id="XMLID_59_">
		<line id="XMLID_70_" class="st1" x1="42" y1="112.96" x2="0" y2="112.96"/>
		<path id="XMLID_69_" class="st2" d="M42,112.96c0,0-0.16,0.15-0.47,0.37c-0.31,0.21-0.76,0.57-1.33,0.93
			c-1.15,0.74-2.79,1.64-4.76,2.45c-1.97,0.81-4.27,1.53-6.73,2.01c-2.46,0.49-5.09,0.73-7.71,0.74c-2.62,0-5.25-0.24-7.71-0.72
			c-1.23-0.24-2.42-0.54-3.55-0.88c-1.13-0.33-2.19-0.74-3.18-1.13c-1.97-0.81-3.61-1.72-4.76-2.46c-0.57-0.36-1.03-0.72-1.33-0.93
			C0.16,113.1,0,112.96,0,112.96s0.16-0.15,0.47-0.37c0.31-0.21,0.76-0.58,1.33-0.93c1.15-0.74,2.79-1.65,4.76-2.46
			c0.98-0.39,2.05-0.8,3.18-1.13c1.13-0.34,2.32-0.64,3.55-0.88c2.46-0.49,5.09-0.72,7.71-0.72c2.62,0.01,5.25,0.25,7.71,0.74
			c2.46,0.48,4.76,1.2,6.73,2.01c1.97,0.81,3.61,1.71,4.76,2.45c0.57,0.35,1.03,0.72,1.33,0.93C41.84,112.81,42,112.96,42,112.96z"
			/>
	</g>
	<g id="XMLID_5_">
		<line id="XMLID_58_" class="st1" x1="53.28" y1="149.89" x2="21" y2="176.76"/>
		<path id="XMLID_57_" class="st2" d="M53.28,149.89c0,0-0.03,0.22-0.12,0.59c-0.1,0.36-0.22,0.93-0.43,1.57
			c-0.41,1.3-1.09,3.05-2.09,4.93c-0.99,1.88-2.3,3.91-3.88,5.85c-1.58,1.95-3.44,3.81-5.45,5.5c-2.02,1.68-4.19,3.18-6.39,4.38
			c-1.1,0.6-2.2,1.14-3.29,1.6c-1.08,0.47-2.16,0.84-3.17,1.16c-2.03,0.64-3.87,0.99-5.23,1.15c-0.67,0.09-1.25,0.1-1.62,0.14
			c-0.38,0.02-0.6,0.01-0.6,0.01s0.03-0.22,0.12-0.59c0.1-0.36,0.21-0.93,0.43-1.57c0.41-1.3,1.09-3.05,2.08-4.94
			c0.51-0.93,1.06-1.93,1.72-2.9c0.65-0.98,1.37-1.97,2.17-2.94c1.58-1.95,3.45-3.81,5.46-5.49c2.03-1.67,4.19-3.17,6.4-4.36
			c2.2-1.21,4.42-2.12,6.45-2.76c2.03-0.64,3.87-0.99,5.22-1.16c0.67-0.1,1.25-0.1,1.62-0.14
			C53.06,149.88,53.28,149.89,53.28,149.89z"/>
	</g>
</g>
</svg>
